<?xml version="1.0" standalone="no"?>
<!DOCTYPE svg PUBLIC "-//W3C//DTD SVG 20010904//EN"
 "http://www.w3.org/TR/2001/REC-SVG-20010904/DTD/svg10.dtd">
<svg version="1.0" xmlns="http://www.w3.org/2000/svg"
 width="500.000000pt" height="500.000000pt" viewBox="0 0 500.000000 500.000000"
 preserveAspectRatio="xMidYMid meet">
<metadata>
Created by potrace 1.11, written by Peter Selinger 2001-2013
</metadata>
<g transform="translate(0.000000,500.000000) scale(0.100000,-0.100000)"
fill="#000000" stroke="none">
<path d="M2250 4924 c-52 -13 -104 -25 -115 -28 -11 -3 -94 -26 -185 -51 -91
-26 -172 -48 -180 -50 -41 -9 -358 -112 -455 -147 -123 -45 -254 -110 -280
-138 -15 -16 -16 -67 -18 -528 -1 -457 -6 -615 -21 -677 -44 -178 -119 -258
-271 -289 -42 -9 -78 -17 -90 -20 -120 -33 -144 -52 -155 -122 -8 -45 -5 -984
3 -1271 4 -120 4 -124 33 -153 39 -41 83 -68 119 -74 17 -2 49 -7 72 -11 38
-6 139 -9 463 -15 183 -4 334 -33 418 -80 51 -29 78 -72 97 -155 23 -95 23
-99 30 -164 3 -31 8 -65 10 -76 2 -11 7 -42 10 -70 16 -130 63 -262 106 -302
26 -23 158 -88 268 -130 318 -122 952 -323 1019 -323 39 0 111 41 143 81 52
66 78 136 84 229 10 156 5 589 -9 815 -10 152 24 207 177 282 94 47 151 57
252 42 33 -4 83 -11 110 -15 28 -3 53 -8 57 -10 19 -12 188 -3 238 12 126 38
243 113 277 177 25 49 28 160 28 1207 0 1024 -4 1188 -35 1355 -18 99 -66 172
-128 196 -43 16 -201 -5 -492 -67 -91 -19 -176 -37 -190 -40 -32 -5 -79 -16
-495 -116 -187 -44 -351 -82 -365 -83 -57 -4 -102 30 -167 128 -76 114 -95
198 -97 432 -1 135 -4 155 -25 198 -40 82 -81 91 -241 51z"/>
</g>
</svg>
