<svg xmlns="http://www.w3.org/2000/svg" version="1.2" viewBox="0 0 14 20" width="14" height="20">
  <g fill="#ff0f36">
    <path d="M7.19 15.02c-.663 0-1.04.637-1.04 1.496 0 .858.4 1.472 1.04 1.472.66 0 1.016-.638 1.016-1.497.024-.784-.355-1.47-1.017-1.47zm0 0M2.34 15.02c-.212 0-.354.023-.424.048v2.895c.07.025.212.025.33.025.876 0 1.443-.49 1.443-1.546 0-.933-.52-1.423-1.35-1.423zm0 0"/>
    <path d="M14 4.786c0-.098-.024-.172-.095-.245L10.193.125l-.07-.074s-.025 0-.025-.024C10.074 0 10.05 0 10.028 0H.755C.33-.022 0 .32 0 .763v18.453c0 .44.33.785.757.785h12.486c.426 0 .757-.344.757-.785V4.81v-.024zM3.997 18.184c-.45.393-1.136.565-1.963.565-.497 0-.852-.026-1.088-.075v-4.32c.355-.048.828-.097 1.3-.097.805 0 1.325.147 1.75.466.45.344.734.884.734 1.67-.024.858-.308 1.422-.733 1.79zm3.145.59c-1.253 0-2.01-.982-2.01-2.258 0-1.326.804-2.307 2.08-2.307 1.302 0 2.035 1.005 2.035 2.232 0 1.472-.852 2.33-2.105 2.33zm4.92-.835c.283 0 .614-.075.803-.148l.142.785c-.166.098-.568.196-1.088.196-1.467 0-2.224-.957-2.224-2.208 0-1.497 1.04-2.356 2.318-2.356.496 0 .875.097 1.04.195l-.19.785c-.188-.073-.472-.17-.803-.17-.756 0-1.347.49-1.347 1.47-.024.91.496 1.45 1.348 1.45zM.756 13.3V.763H9.53v4.024c0 .22.166.393.38.393h3.333v8.146H.757zm0 0"/>
    <path d="M6.03 5.4h2.744c.142 0 .26-.123.26-.27 0-.147-.095-.246-.237-.246H6.03c-.14 0-.26.123-.26.27 0 .148.142.246.26.246zm0 0M10.145 6.946H3.287c-.142 0-.26.122-.26.27 0 .147.118.27.26.27h6.858c.142 0 .26-.123.26-.27-.023-.148-.118-.27-.26-.27zm0 0M3.997 5.915l.236-.982c.047-.245.095-.44.142-.662.024.222.07.418.118.663l.213.982h.402l.544-2.086h-.378l-.213.932c-.046.245-.094.49-.14.71-.025-.22-.072-.465-.12-.71l-.19-.957h-.377l-.213.932c-.047.27-.118.515-.142.736-.023-.196-.07-.466-.142-.736l-.19-.932H3.17l.496 2.085h.33zm0 0M10.145 9.03H3.287c-.142 0-.26.124-.26.27 0 .15.118.27.26.27h6.858c.142 0 .26-.12.26-.27-.023-.17-.118-.27-.26-.27zm0 0M10.145 11.142H3.287c-.142 0-.26.122-.26.27 0 .147.118.27.26.27h6.858c.142 0 .26-.123.26-.27-.023-.148-.118-.27-.26-.27zm0 0"/>
  </g>
</svg>