<?xml version="1.0" encoding="UTF-8" standalone="no"?>
<!-- Generator: Adobe Illustrator 19.2.1, SVG Export Plug-In . SVG Version: 6.00 Build 0)  -->

<svg
   xmlns:dc="http://purl.org/dc/elements/1.1/"
   xmlns:cc="http://creativecommons.org/ns#"
   xmlns:rdf="http://www.w3.org/1999/02/22-rdf-syntax-ns#"
   xmlns:svg="http://www.w3.org/2000/svg"
   xmlns="http://www.w3.org/2000/svg"
   xmlns:sodipodi="http://sodipodi.sourceforge.net/DTD/sodipodi-0.dtd"
   xmlns:inkscape="http://www.inkscape.org/namespaces/inkscape"
   version="1.1"
   id="Capa_1"
   x="0px"
   y="0px"
   viewBox="-49 141 50 50.000001"
   xml:space="preserve"
   inkscape:version="0.91 r13725"
   sodipodi:docname="icon-assistant-3.svg"
   width="50"
   height="50"><metadata
     id="metadata21"><rdf:RDF><cc:Work
         rdf:about=""><dc:format>image/svg+xml</dc:format><dc:type
           rdf:resource="http://purl.org/dc/dcmitype/StillImage" /><dc:title></dc:title></cc:Work></rdf:RDF></metadata><defs
     id="defs19" /><sodipodi:namedview
     pagecolor="#ffffff"
     bordercolor="#666666"
     borderopacity="1"
     objecttolerance="10"
     gridtolerance="10"
     guidetolerance="10"
     inkscape:pageopacity="0"
     inkscape:pageshadow="2"
     inkscape:window-width="1920"
     inkscape:window-height="1017"
     id="namedview17"
     showgrid="false"
     fit-margin-top="0"
     fit-margin-left="0"
     fit-margin-right="0"
     fit-margin-bottom="0"
     inkscape:zoom="7.375"
     inkscape:cx="38.807736"
     inkscape:cy="41.144454"
     inkscape:window-x="-8"
     inkscape:window-y="-8"
     inkscape:window-maximized="1"
     inkscape:current-layer="Capa_1" /><g
     id="g4157"
     transform="translate(0,-2.8135592)"
     style="fill:#ffffff"><path
       inkscape:connector-curvature="0"
       id="path11"
       d="m 0.17685386,181.8238 -0.66504036,0 0,-14.32141 c 0,-5.44748 -4.4324305,-9.87941 -9.8805855,-9.87941 l -8.419157,0 0,-10.09513 c 0,-0.45461 -0.368556,-0.82315 -0.823146,-0.82315 l -26.528861,0 c -0.454591,0 -0.823146,0.36854 -0.823146,0.82315 l 0,34.29595 -1.213772,0 c -0.454591,0 -0.823146,0.36858 -0.823146,0.82315 0,0.4546 0.368555,0.82315 0.823146,0.82315 l 1.213772,0 0,1.505 c 0,0.45457 0.368555,0.82314 0.823146,0.82314 l 3.135846,0 c 0.402833,2.93388 2.92442,5.20176 5.967297,5.20176 3.322174,0 6.024914,-2.70274 6.024914,-6.0249 0,-3.32218 -2.70274,-6.02492 -6.024914,-6.02492 -3.042779,0 -5.564366,2.26788 -5.967297,5.20176 l -2.3127,0 0,-0.68184 0.823146,0 c 0.454591,0 0.823147,-0.36855 0.823147,-0.82315 0,-0.45457 -0.368556,-0.82315 -0.823147,-0.82315 l -0.823146,0 0,-3.73164 19.738613,0 c 0.454591,0 0.823146,-0.36854 0.823146,-0.82314 0,-0.4546 -0.368555,-0.82316 -0.823146,-0.82316 l -19.738613,0 0,-28.09476 24.882568,0 0,10.09523 0,17.99953 -2.400004,0 c -0.454591,0 -0.823146,0.36856 -0.823146,0.82316 0,0.4546 0.368555,0.82314 0.823146,0.82314 l 2.400004,0 0,6.05978 -8.608122,0 c -0.454591,0 -0.823146,0.36855 -0.823146,0.82316 0,0.45457 0.368555,0.82314 0.823146,0.82314 l 12.209399,0 c 0.402833,2.93388 2.92442,5.20176 5.967297,5.20176 3.0428769,0 5.5643662,-2.26788 5.9672966,-5.20176 l 3.5870188,0 c 0.45459069,0 0.8231461,-0.36857 0.8231461,-0.82314 l 0,-1.505 0.66504036,0 C 0.63144459,183.4701 1,183.10155 1,182.64695 1,182.19238 0.63144459,181.8238 0.17685386,181.8238 Z M -37.036891,180.59636 c 2.41436,0 4.378622,1.96418 4.378622,4.37864 0,2.41445 -1.964164,4.3786 -4.378622,4.3786 -2.414458,0 -4.378622,-1.96415 -4.378622,-4.3786 0,-2.41446 1.964262,-4.37864 4.378622,-4.37864 z m 26.171145,8.75734 c -2.413872,0 -4.37784,-1.96347 -4.378622,-4.37715 0,-3.9e-4 9.8e-5,-9.8e-4 9.8e-5,-0.001 0,-4.8e-4 -9.8e-5,-9.7e-4 -9.8e-5,-9.9e-4 7.82e-4,-2.41368 1.96475,-4.37716 4.378622,-4.37716 2.4143604,0 4.378622,1.96416 4.378622,4.37862 0,2.41445 -1.9642616,4.37863 -4.378622,4.37863 z m 8.7312672,-5.20176 -2.7639702,0 c -0.4028328,-2.93388 -2.9244198,-5.20176 -5.967297,-5.20176 -3.042877,0 -5.564366,2.26788 -5.967297,5.20176 l -1.954984,0 0,-24.88256 8.419157,0 c 4.5404387,0 8.2342936,3.69325 8.2342936,8.2331 l 0,14.32132 -1.3719754,0 c -0.4545907,0 -0.8231461,0.36858 -0.8231461,0.82315 0,0.4546 0.3685554,0.82315 0.8231461,0.82315 l 1.372073,0 0,0.68184 z"
       style="fill:#ffffff" /><g
       id="g4149"
       style="fill:#ffffff"><path
         d="m -10.36887,161.52437 -5.340928,0 c -0.454591,0 -0.823146,0.36854 -0.823146,0.82312 l 0,5.1546 c 0,0.45461 0.368555,0.82316 0.823146,0.82316 0.45459,0 0.823146,-0.36855 0.823146,-0.82316 l 0,-4.33145 4.517782,0 c 2.3893603,0 4.3331141,1.94327 4.3331141,4.33175 l 0,3.19004 -8.8508961,0 0,-0.44646 c 0,-0.45461 -0.368556,-0.82315 -0.823146,-0.82315 -0.454591,0 -0.823146,0.36854 -0.823146,0.82315 l 0,1.26961 c 0,0.4546 0.368555,0.82315 0.823146,0.82315 l 10.4971882,0 c 0.4545907,0 0.8231461,-0.36855 0.8231461,-0.82315 l 0,-4.01319 c 0,-3.29629 -2.6823294,-5.97802 -5.9794063,-5.97802 z"
         id="path3"
         inkscape:connector-curvature="0"
         style="fill:#ffffff" /><path
         d="m -37.036891,187.8753 c 1.599125,0 2.900201,-1.30109 2.900201,-2.9002 0,-1.59913 -1.301076,-2.90022 -2.900201,-2.90022 -1.599124,0 -2.900201,1.30109 -2.900201,2.90022 0,1.59911 1.300979,2.9002 2.900201,2.9002 z m 0,-4.15411 c 0.69131,0 1.253811,0.5625 1.253811,1.25381 0,0.6913 -0.562501,1.2538 -1.253811,1.2538 -0.69131,0 -1.253811,-0.5625 -1.253811,-1.2538 0,-0.69131 0.562404,-1.25381 1.253811,-1.25381 z"
         id="path5"
         inkscape:connector-curvature="0"
         style="fill:#ffffff" /><path
         d="m -10.865746,182.07479 c -1.599124,0 -2.900201,1.30108 -2.900201,2.90021 0,1.59912 1.301077,2.9002 2.900201,2.9002 1.5991244,0 2.9002011,-1.30108 2.9002011,-2.9002 0,-1.59913 -1.3009791,-2.90021 -2.9002011,-2.90021 z m 0,4.1542 c -0.69131,0 -1.253811,-0.5625 -1.253811,-1.25381 0,-0.6913 0.562501,-1.2538 1.253811,-1.2538 0.69131,0 1.2538112,0.5625 1.2538112,1.2538 0,0.69131 -0.5624032,1.25381 -1.2538112,1.25381 z"
         id="path7"
         inkscape:connector-curvature="0"
         style="fill:#ffffff" /><path
         d="m -5.2126098,175.30896 c -0.4545907,0 -0.8231461,0.36856 -0.8231461,0.82313 l 0,2.47081 c 0,0.4546 0.3685554,0.82315 0.8231461,0.82315 0.4545907,0 0.8231461,-0.36855 0.8231461,-0.82315 l 0,-2.47081 c 0,-0.45457 -0.3685554,-0.82313 -0.8231461,-0.82313 z"
         id="path9"
         inkscape:connector-curvature="0"
         style="fill:#ffffff" /><path
         d="m -38.777812,167.43776 c -0.454591,0 -0.823146,0.36854 -0.823146,0.82312 l 0,3.02717 c 0,0.4546 0.368555,0.82315 0.823146,0.82315 l 11.804515,0 c 0.454591,0 0.823146,-0.36855 0.823146,-0.82315 l 0,-9.88987 1.039651,1.03965 c 0.160645,0.16065 0.371387,0.24111 0.582032,0.24111 0.210645,0 0.421388,-0.0805 0.582033,-0.24111 0.321485,-0.32149 0.321485,-0.84266 0,-1.16406 l -2.812701,-2.8127 0,-4.42931 c 0,-0.45458 -0.368556,-0.82315 -0.823146,-0.82315 l -2.744146,0 c -0.454591,0 -0.823147,0.36857 -0.823147,0.82315 l 0,0.0388 -1.143849,-1.14384 c -0.321485,-0.32149 -0.842678,-0.32149 -1.164065,0 l -8.347087,8.34708 c -0.321485,0.3215 -0.321485,0.84267 0,1.16406 0.321485,0.32148 0.842678,0.32148 1.164065,0 l 1.03965,-1.03966 0,4.13538 c 0,0.45457 0.368556,0.82315 0.823147,0.82315 0.45459,0 0.823146,-0.36858 0.823146,-0.82315 l 0,-5.78165 5.079111,-5.07912 5.079112,5.07912 0,10.713 -10.158321,0 0,-2.20402 c 0,-0.45458 -0.368555,-0.82312 -0.823146,-0.82312 z m 9.27453,-12.58285 1.097756,0 0,1.95956 -1.097756,-1.09763 0,-0.86193 z"
         id="path13"
         inkscape:connector-curvature="0"
         style="fill:#ffffff" /><path
         d="m -30.621644,168.80913 c 0.454591,0 0.823146,-0.36855 0.823146,-0.82315 l 0,-5.55302 c 0,-0.4546 -0.368555,-0.82315 -0.823146,-0.82315 l -4.507821,0 c -0.454591,0 -0.823146,0.36855 -0.823146,0.82315 l 0,5.55302 c 0,0.4546 0.368555,0.82315 0.823146,0.82315 l 4.507821,0 z m -3.684577,-5.55312 2.861431,0 0,3.90675 -2.861431,0 0,-3.90675 z"
         id="path15"
         inkscape:connector-curvature="0"
         style="fill:#ffffff" /></g></g></svg>