<?xml version="1.0" encoding="UTF-8" standalone="no"?>
<!-- Generator: Adobe Illustrator 19.2.1, SVG Export Plug-In . SVG Version: 6.00 Build 0)  -->

<svg
   xmlns:dc="http://purl.org/dc/elements/1.1/"
   xmlns:cc="http://creativecommons.org/ns#"
   xmlns:rdf="http://www.w3.org/1999/02/22-rdf-syntax-ns#"
   xmlns:svg="http://www.w3.org/2000/svg"
   xmlns="http://www.w3.org/2000/svg"
   xmlns:sodipodi="http://sodipodi.sourceforge.net/DTD/sodipodi-0.dtd"
   xmlns:inkscape="http://www.inkscape.org/namespaces/inkscape"
   version="1.1"
   id="Layer_1"
   x="0px"
   y="0px"
   viewBox="0 0 49.999998 50"
   xml:space="preserve"
   inkscape:version="0.91 r13725"
   sodipodi:docname="icon-assistant-4.svg"
   width="50"
   height="50"><metadata
     id="metadata39"><rdf:RDF><cc:Work
         rdf:about=""><dc:format>image/svg+xml</dc:format><dc:type
           rdf:resource="http://purl.org/dc/dcmitype/StillImage" /><dc:title></dc:title></cc:Work></rdf:RDF></metadata><defs
     id="defs37" /><sodipodi:namedview
     pagecolor="#ffffff"
     bordercolor="#666666"
     borderopacity="1"
     objecttolerance="10"
     gridtolerance="10"
     guidetolerance="10"
     inkscape:pageopacity="0"
     inkscape:pageshadow="2"
     inkscape:window-width="1920"
     inkscape:window-height="1017"
     id="namedview35"
     showgrid="false"
     fit-margin-top="0"
     fit-margin-left="0"
     fit-margin-right="0"
     fit-margin-bottom="0"
     inkscape:zoom="4.9166667"
     inkscape:cx="22.519501"
     inkscape:cy="24.000002"
     inkscape:window-x="-8"
     inkscape:window-y="-8"
     inkscape:window-maximized="1"
     inkscape:current-layer="Layer_1" /><g
     id="g3"
     transform="matrix(1.0416667,0,0,1.0416667,1.4237288,0)"
     style="fill:#ffffff"><path
       d="M 45.039,20 C 45.039,12.961 39.281,7.199 32.238,7.199 25.039,7.199 19.199,12.961 19.199,20 l 1.602,0 c 0,-6.16 5.121,-11.199 11.437,-11.199 6.16,0 11.203,5.039 11.203,11.199 0,5.441 -3.839,10.078 -9.203,11.039 -0.398,0.082 -0.636,0.402 -0.636,0.801 l 0,4.961 -2.403,0 0,-4.801 -1.597,0 0,4.801 -1.602,0 c -0.48,0 -0.801,0.32 -0.801,0.801 l 0,10.398 1.602,0 0,-3.199 4,0 0,-1.602 -4,0 0,-1.597 4,0 0,-1.602 -4,0 0,-1.602 7.199,0 0,9.602 1.602,0 0,-10.398 c 0,-0.481 -0.321,-0.801 -0.801,-0.801 l -1.602,0 0,-4.321 C 40.961,31.121 45.039,26 45.039,20 l 0,0 z m 0,0"
       id="path5"
       inkscape:connector-curvature="0"
       style="fill:#ffffff" /><path
       d="m 17.602,31.199 -8,0 C 6.48,31.199 4,33.68 4,36.801 l 0,9.597 -2.398,0 0,-36 8,0 c 0.476,0 0.796,-0.32 0.796,-0.796 l 0,-8 26.403,0 0,4 1.597,0 0,-4.801 C 38.398,0.32 38.078,0 37.602,0 l -28,0 C 9.52,0 9.441,0 9.359,0.078 l -0.078,0 C 9.199,0.16 9.121,0.16 9.039,0.238 L 0.238,9.039 C 0.16,9.121 0.16,9.199 0.078,9.281 l 0,0.078 C 0.078,9.441 0,9.52 0,9.602 L 0,47.199 C 0,47.68 0.32,48 0.801,48 l 22.398,0 0,-11.199 c 0,-3.121 -2.48,-5.602 -5.597,-5.602 l 0,0 z M 2.719,8.801 5.762,5.762 8.801,2.719 l 0,6.082 -6.082,0 z m 12.242,24 -1.281,3.359 -1.282,-3.359 2.563,0 z m 6.641,13.597 -2.403,0 0,-7.199 -1.597,0 0,7.199 -8,0 0,-7.199 -1.602,0 0,7.199 -2.398,0 0,-9.597 c 0,-2.242 1.757,-4 4,-4 l 1.039,0 2.238,5.918 c 0.082,0.242 0.402,0.48 0.723,0.48 0.32,0 0.636,-0.238 0.878,-0.48 l 2.239,-5.918 0.883,0 c 2.238,0 4,1.758 4,4 l 0,9.597 z m 0,0"
       id="path7"
       inkscape:connector-curvature="0"
       style="fill:#ffffff" /><rect
       x="12.801"
       y="40.800999"
       width="1.598"
       height="1.598"
       id="rect9"
       style="fill:#ffffff" /><rect
       x="12.801"
       y="44"
       width="1.598"
       height="1.602"
       id="rect11"
       style="fill:#ffffff" /><path
       d="m 12.801,30.398 1.597,0 c 2.243,0 4,-1.757 4,-4 l 0,-2.398 c 0,-2.238 -1.757,-4 -4,-4 l -1.597,0 c -2.242,0 -4,1.762 -4,4 l 0,2.398 c 0,2.243 1.758,4 4,4 l 0,0 z M 10.398,24 c 0,-1.359 1.043,-2.398 2.403,-2.398 l 1.597,0 c 1.364,0 2.403,1.039 2.403,2.398 l 0,2.398 c 0,1.364 -1.039,2.403 -2.403,2.403 l -1.597,0 c -1.36,0 -2.403,-1.039 -2.403,-2.403 l 0,-2.398 z m 0,0"
       id="path13"
       inkscape:connector-curvature="0"
       style="fill:#ffffff" /><path
       d="m 40.801,20 c 0,-4.879 -3.922,-8.801 -8.801,-8.801 -4.879,0 -8.801,3.922 -8.801,8.801 0,4.879 3.922,8.801 8.801,8.801 4.879,0 8.801,-3.922 8.801,-8.801 l 0,0 z m -16,0 C 24.801,16 28,12.801 32,12.801 36,12.801 39.199,16 39.199,20 39.199,24 36,27.199 32,27.199 28,27.199 24.801,24 24.801,20 l 0,0 z m 0,0"
       id="path15"
       inkscape:connector-curvature="0"
       style="fill:#ffffff" /><rect
       x="31.198999"
       y="19.198999"
       width="1.602"
       height="1.602"
       id="rect17"
       style="fill:#ffffff" /><rect
       x="34.397999"
       y="19.198999"
       width="1.602"
       height="1.602"
       id="rect19"
       style="fill:#ffffff" /><rect
       x="28"
       y="19.198999"
       width="1.602"
       height="1.602"
       id="rect21"
       style="fill:#ffffff" /><rect
       x="31.198999"
       y="16"
       width="1.602"
       height="1.602"
       id="rect23"
       style="fill:#ffffff" /><rect
       x="31.198999"
       y="22.398001"
       width="1.602"
       height="1.602"
       id="rect25"
       style="fill:#ffffff" /><rect
       x="4.8010001"
       y="12.801"
       width="8"
       height="1.598"
       id="rect27"
       style="fill:#ffffff" /><rect
       x="4.8010001"
       y="16"
       width="8"
       height="1.602"
       id="rect29"
       style="fill:#ffffff" /><rect
       x="14.398"
       y="12.801"
       width="1.602"
       height="1.598"
       id="rect31"
       style="fill:#ffffff" /><rect
       x="14.398"
       y="16"
       width="1.602"
       height="1.602"
       id="rect33"
       style="fill:#ffffff" /></g></svg>