<?xml version="1.0" encoding="UTF-8" standalone="no"?>
<!-- Generator: Adobe Illustrator 19.2.1, SVG Export Plug-In . SVG Version: 6.00 Build 0)  -->

<svg
   xmlns:dc="http://purl.org/dc/elements/1.1/"
   xmlns:cc="http://creativecommons.org/ns#"
   xmlns:rdf="http://www.w3.org/1999/02/22-rdf-syntax-ns#"
   xmlns:svg="http://www.w3.org/2000/svg"
   xmlns="http://www.w3.org/2000/svg"
   xmlns:sodipodi="http://sodipodi.sourceforge.net/DTD/sodipodi-0.dtd"
   xmlns:inkscape="http://www.inkscape.org/namespaces/inkscape"
   version="1.2"
   id="Layer_1"
   x="0px"
   y="0px"
   viewBox="0 0 50 50.000004"
   xml:space="preserve"
   inkscape:version="0.91 r13725"
   sodipodi:docname="icon-assistant-2.svg"
   width="50"
   height="50.000004"><metadata
     id="metadata81"><rdf:RDF><cc:Work
         rdf:about=""><dc:format>image/svg+xml</dc:format><dc:type
           rdf:resource="http://purl.org/dc/dcmitype/StillImage" /><dc:title></dc:title></cc:Work></rdf:RDF></metadata><defs
     id="defs79" /><sodipodi:namedview
     pagecolor="#ffffff"
     bordercolor="#666666"
     borderopacity="1"
     objecttolerance="10"
     gridtolerance="10"
     guidetolerance="10"
     inkscape:pageopacity="0"
     inkscape:pageshadow="2"
     inkscape:window-width="1920"
     inkscape:window-height="1017"
     id="namedview77"
     showgrid="false"
     fit-margin-top="0"
     fit-margin-left="0"
     fit-margin-right="0"
     fit-margin-bottom="0"
     inkscape:zoom="4.9166667"
     inkscape:cx="24"
     inkscape:cy="24.000003"
     inkscape:window-x="-8"
     inkscape:window-y="-8"
     inkscape:window-maximized="1"
     inkscape:current-layer="Layer_1" /><g
     id="g3"
     transform="scale(1.0416667,1.0416667)"
     style="fill:#ffffff"><path
       d="m 1.6,10.4 8,0 c 0.5,0 0.8,-0.3 0.8,-0.8 l 0,-8 26.4,0 0,4 1.6,0 0,-4.8 C 38.4,0.3 38.1,0 37.6,0 L 9.6,0 C 9.5,0 9.4,0 9.4,0.1 l -0.1,0 C 9.2,0.2 9.1,0.2 9,0.2 L 0.2,9 c 0,0.1 0,0.2 -0.1,0.3 l 0,0.1 C 0.1,9.4 0,9.5 0,9.6 L 0,47.2 C 0,47.7 0.3,48 0.8,48 l 23.2,0 0,-1.6 -22.4,0 0,-36 z m 1.1,-1.6 3,-3 3,-3 0,6.1 -6,0 z m 0,0"
       id="path5"
       inkscape:connector-curvature="0"
       style="fill:#ffffff" /><path
       d="m 42.4,31.2 -8,0 c -3.1,0 -5.6,2.5 -5.6,5.6 l 0,11.2 1.6,0 0,-11.2 c 0,-2.2 1.8,-4 4,-4 l 1,0 2.2,5.9 c 0.1,0.2 0.4,0.5 0.7,0.5 0.3,0 0.6,-0.2 0.9,-0.5 l 2.2,-5.9 0.9,0 c 2.2,0 4,1.8 4,4 l 0,11.2 1.7,0 0,-11.2 c 0,-3.1 -2.5,-5.6 -5.6,-5.6 l 0,0 z m -3.9,5 -1.3,-3.4 2.6,0 -1.3,3.4 z m 0,0"
       id="path7"
       inkscape:connector-curvature="0"
       style="fill:#ffffff" /><rect
       x="37.599998"
       y="40.799999"
       width="1.6"
       height="1.6"
       id="rect9"
       style="fill:#ffffff" /><rect
       x="37.599998"
       y="44"
       width="1.6"
       height="1.6"
       id="rect11"
       style="fill:#ffffff" /><path
       d="m 37.6,30.4 1.6,0 c 2.2,0 4,-1.8 4,-4 l 0,-2.4 c 0,-2.2 -1.8,-4 -4,-4 l -1.6,0 c -2.2,0 -4,1.8 -4,4 l 0,2.4 c 0,2.2 1.8,4 4,4 l 0,0 z M 35.2,24 c 0,-1.4 1,-2.4 2.4,-2.4 l 1.6,0 c 1.4,0 2.4,1 2.4,2.4 l 0,2.4 c 0,1.4 -1,2.4 -2.4,2.4 l -1.6,0 c -1.4,0 -2.4,-1 -2.4,-2.4 l 0,-2.4 z m 0,0"
       id="path13"
       inkscape:connector-curvature="0"
       style="fill:#ffffff" /><rect
       x="32.799999"
       y="39.200001"
       width="1.6"
       height="8.8000002"
       id="rect15"
       style="fill:#ffffff" /><rect
       x="42.400002"
       y="39.200001"
       width="1.6"
       height="8.8000002"
       id="rect17"
       style="fill:#ffffff" /><path
       d="m 47.2,11.2 -2.4,0 0,-2.4 C 44.8,8.3 44.5,8 44,8 l -16.8,0 0,1.6 16,0 0,1.6 -24.8,0 c -0.2,0 -0.3,0.1 -0.4,0.1 l -6.3,2.4 c -0.2,0.1 -0.5,0.4 -0.5,0.7 0,0.3 0.2,0.6 0.5,0.7 l 6.3,2.4 c 0.1,0 0.2,0.1 0.2,0.1 l 29,0 c 0.5,0 0.8,-0.3 0.8,-0.8 L 48,12 c 0,-0.5 -0.3,-0.8 -0.8,-0.8 l 0,0 z m -29.6,2 0,2.5 -3.4,-1.3 3.4,-1.2 z m 1.6,-0.4 20.8,0 0,3.2 -20.8,0 0,-3.2 z m 27.2,3.2 -4.8,0 0,-3.2 4.8,0 0,3.2 z m 0,0"
       id="path19"
       inkscape:connector-curvature="0"
       style="fill:#ffffff" /><rect
       x="4.8000002"
       y="22.4"
       width="8"
       height="1.6"
       id="rect21"
       style="fill:#ffffff" /><rect
       x="4.8000002"
       y="25.6"
       width="8"
       height="1.6"
       id="rect23"
       style="fill:#ffffff" /><rect
       x="4.8000002"
       y="28.799999"
       width="8"
       height="1.6"
       id="rect25"
       style="fill:#ffffff" /><rect
       x="4.8000002"
       y="32"
       width="8"
       height="1.6"
       id="rect27"
       style="fill:#ffffff" /><rect
       x="16"
       y="22.4"
       width="8"
       height="1.6"
       id="rect29"
       style="fill:#ffffff" /><rect
       x="16"
       y="25.6"
       width="8"
       height="1.6"
       id="rect31"
       style="fill:#ffffff" /><rect
       x="27.200001"
       y="22.4"
       width="4"
       height="1.6"
       id="rect33"
       style="fill:#ffffff" /><rect
       x="27.200001"
       y="25.6"
       width="4"
       height="1.6"
       id="rect35"
       style="fill:#ffffff" /><rect
       x="16"
       y="28.799999"
       width="8"
       height="1.6"
       id="rect37"
       style="fill:#ffffff" /><rect
       x="16"
       y="32"
       width="8"
       height="1.6"
       id="rect39"
       style="fill:#ffffff" /><rect
       x="4.8000002"
       y="36"
       width="1.6"
       height="1.6"
       id="rect41"
       style="fill:#ffffff" /><rect
       x="8"
       y="36"
       width="1.6"
       height="1.6"
       id="rect43"
       style="fill:#ffffff" /><rect
       x="11.2"
       y="36"
       width="1.6"
       height="1.6"
       id="rect45"
       style="fill:#ffffff" /><rect
       x="16"
       y="36"
       width="1.6"
       height="1.6"
       id="rect47"
       style="fill:#ffffff" /><rect
       x="19.200001"
       y="36"
       width="1.6"
       height="1.6"
       id="rect49"
       style="fill:#ffffff" /><rect
       x="22.4"
       y="36"
       width="1.6"
       height="1.6"
       id="rect51"
       style="fill:#ffffff" /><rect
       x="4.8000002"
       y="39.200001"
       width="1.6"
       height="1.6"
       id="rect53"
       style="fill:#ffffff" /><rect
       x="8"
       y="39.200001"
       width="1.6"
       height="1.6"
       id="rect55"
       style="fill:#ffffff" /><rect
       x="11.2"
       y="39.200001"
       width="1.6"
       height="1.6"
       id="rect57"
       style="fill:#ffffff" /><rect
       x="16"
       y="39.200001"
       width="1.6"
       height="1.6"
       id="rect59"
       style="fill:#ffffff" /><rect
       x="19.200001"
       y="39.200001"
       width="1.6"
       height="1.6"
       id="rect61"
       style="fill:#ffffff" /><rect
       x="22.4"
       y="39.200001"
       width="1.6"
       height="1.6"
       id="rect63"
       style="fill:#ffffff" /><rect
       x="4.8000002"
       y="42.400002"
       width="1.6"
       height="1.6"
       id="rect65"
       style="fill:#ffffff" /><rect
       x="8"
       y="42.400002"
       width="1.6"
       height="1.6"
       id="rect67"
       style="fill:#ffffff" /><rect
       x="11.2"
       y="42.400002"
       width="1.6"
       height="1.6"
       id="rect69"
       style="fill:#ffffff" /><rect
       x="16"
       y="42.400002"
       width="1.6"
       height="1.6"
       id="rect71"
       style="fill:#ffffff" /><rect
       x="19.200001"
       y="42.400002"
       width="1.6"
       height="1.6"
       id="rect73"
       style="fill:#ffffff" /><rect
       x="22.4"
       y="42.400002"
       width="1.6"
       height="1.6"
       id="rect75"
       style="fill:#ffffff" /></g></svg>